<svg id="Layer_1" data-name="Layer 1" xmlns="http://www.w3.org/2000/svg" viewBox="0 0 943.98 383.18"><defs><style>.cls-1{fill:#fff;}.cls-1,.cls-2,.cls-3,.cls-4,.cls-5{fill-rule:evenodd;}.cls-2{fill:#c6d1c1;}.cls-3{fill:#a2c297;}.cls-4{fill:#6ccb4b;}.cls-5{fill:#bbf923;}</style></defs><g id="Page-1"><g id="taxonomy_of_futures_path" data-name="taxonomy of futures path"><path id="Present" class="cls-1" d="M13.24,206V188.66H18a7.44,7.44,0,0,1,4.51,1.06,4.11,4.11,0,0,1,1.37,3.48A5.35,5.35,0,0,1,22,197.54a7.86,7.86,0,0,1-5.2,1.57H15.68V206Zm2.44-8.75h1a5.14,5.14,0,0,0,3.39-1,3.5,3.5,0,0,0,1.19-2.85,2.56,2.56,0,0,0-.93-2.23,5.63,5.63,0,0,0-3.13-.66H15.68ZM26.57,206V193.27h2.31v2.39a4.32,4.32,0,0,1,4-2.67,4.91,4.91,0,0,1,.74.06v2.16a3.21,3.21,0,0,0-1.06-.2c-1.46,0-2.68.86-3.67,2.6V206Zm19.15-.41a14,14,0,0,1-4,.7,6,6,0,0,1-4.59-1.87,6.74,6.74,0,0,1-1.77-4.84A7.13,7.13,0,0,1,37,194.83,5,5,0,0,1,41,193a4.25,4.25,0,0,1,3.57,1.64,7.52,7.52,0,0,1,1.26,4.67V200h-8c.34,3,1.82,4.54,4.44,4.54a10.55,10.55,0,0,0,3.54-.78Zm-7.87-7.32h5.61q0-3.56-2.65-3.56T37.85,198.27Zm15.29,8a12.51,12.51,0,0,1-3.84-.74v-2.12a9.11,9.11,0,0,0,3.93,1.13,2.53,2.53,0,0,0,1.66-.54,1.69,1.69,0,0,0,.65-1.35c0-.79-.61-1.44-1.84-2l-1.34-.57c-2-.83-3-2-3-3.57A3.19,3.19,0,0,1,50.54,194a5,5,0,0,1,3.23-1,14.56,14.56,0,0,1,2.64.3l.48.09v1.92a11.56,11.56,0,0,0-3.07-.57c-1.48,0-2.23.54-2.23,1.61,0,.7.57,1.28,1.69,1.76l1.11.47a7.54,7.54,0,0,1,2.68,1.68,3.23,3.23,0,0,1,.78,2.21,3.38,3.38,0,0,1-1.32,2.75A5.2,5.2,0,0,1,53.14,206.29Zm18.19-.7a14,14,0,0,1-4,.7,6,6,0,0,1-4.59-1.87A6.71,6.71,0,0,1,61,199.58a7.09,7.09,0,0,1,1.57-4.75,5,5,0,0,1,4-1.85,4.25,4.25,0,0,1,3.57,1.64,7.52,7.52,0,0,1,1.26,4.67V200h-8c.33,3,1.81,4.54,4.44,4.54a10.55,10.55,0,0,0,3.54-.78Zm-7.88-7.32h5.62c0-2.37-.89-3.56-2.65-3.56S63.66,195.9,63.45,198.27ZM75.37,206V193.27h2.31v2.39A5.33,5.33,0,0,1,82.16,193a3.42,3.42,0,0,1,2.63,1,3.94,3.94,0,0,1,1,2.82V206H83.47v-8.39a3.64,3.64,0,0,0-.42-2,1.54,1.54,0,0,0-1.37-.61q-2.13,0-4,2.78V206Zm18.72.29a3.67,3.67,0,0,1-2.75-1,3.89,3.89,0,0,1-1-2.81V195H88.77v-1.74h1.59V191l2.31-.22v2.53H96V195H92.67v7.05c0,1.67.72,2.5,2.15,2.5a5.17,5.17,0,0,0,1.12-.15V206A6.93,6.93,0,0,1,94.09,206.29Z" transform="translate(-13.24 -5)"/><path id="Futures" class="cls-1" d="M874.24,206V188.66h9.69v1.84H876.7v5.81h6.07v1.81H876.7V206Zm20.89,0v-2.39a5.31,5.31,0,0,1-4.46,2.68,3.46,3.46,0,0,1-2.65-1,4,4,0,0,1-1-2.83v-9.14h2.3v8.39a3.72,3.72,0,0,0,.42,2,1.57,1.57,0,0,0,1.39.6c1.4,0,2.73-.92,4-2.78v-8.25h2.31V206Zm10.76.29a3.65,3.65,0,0,1-2.74-1,3.85,3.85,0,0,1-1-2.81V195h-1.59v-1.74h1.59V191l2.31-.22v2.53h3.33V195h-3.33v7.05c0,1.67.72,2.5,2.16,2.5a5.17,5.17,0,0,0,1.11-.15V206A6.93,6.93,0,0,1,905.89,206.29ZM919,206v-2.39a5.31,5.31,0,0,1-4.46,2.68,3.46,3.46,0,0,1-2.65-1,4,4,0,0,1-1-2.83v-9.14h2.3v8.39a3.72,3.72,0,0,0,.42,2,1.57,1.57,0,0,0,1.39.6c1.41,0,2.73-.92,4-2.78v-8.25h2.31V206Zm6.94,0V193.27h2.31v2.39a4.3,4.3,0,0,1,4-2.67,4.81,4.81,0,0,1,.74.06v2.16a3.2,3.2,0,0,0-1.05-.2c-1.46,0-2.69.86-3.67,2.6V206Zm19.15-.41a14,14,0,0,1-4,.7,6,6,0,0,1-4.59-1.87,6.75,6.75,0,0,1-1.78-4.84,7.14,7.14,0,0,1,1.57-4.75,5,5,0,0,1,4-1.85,4.25,4.25,0,0,1,3.57,1.64,7.52,7.52,0,0,1,1.26,4.67V200h-8c.34,3,1.82,4.54,4.44,4.54a10.55,10.55,0,0,0,3.54-.78Zm-7.88-7.32h5.62q0-3.56-2.65-3.56T937.21,198.27Zm15.3,8a12.56,12.56,0,0,1-3.85-.74v-2.12a9.14,9.14,0,0,0,3.94,1.13,2.48,2.48,0,0,0,1.65-.54,1.68,1.68,0,0,0,.66-1.35c0-.79-.61-1.44-1.84-2l-1.35-.57q-3-1.24-3-3.57a3.2,3.2,0,0,1,1.18-2.62,5,5,0,0,1,3.23-1,14.56,14.56,0,0,1,2.64.3l.48.09v1.92a11.56,11.56,0,0,0-3.07-.57c-1.49,0-2.23.54-2.23,1.61,0,.7.56,1.28,1.69,1.76l1.11.47a7.39,7.39,0,0,1,2.67,1.68,3.19,3.19,0,0,1,.79,2.21,3.36,3.36,0,0,1-1.33,2.75A5.17,5.17,0,0,1,952.51,206.29Z" transform="translate(-13.24 -5)"/><g id="cones"><polygon id="Path" class="cls-2" points="90.76 192.96 715.32 0 715.32 383.18 90.76 192.96"/><polygon id="Path-2" class="cls-3" points="95.76 193.12 715.56 57 715.56 333.68 95.76 193.12"/><polygon id="Path-3" class="cls-4" points="95.76 192.19 714.47 112 714.47 271.65 95.76 192.19"/><polygon id="Path-4" class="cls-5" points="96.76 193.29 715.72 192.29 715.72 238.97 96.76 193.29"/></g><path id="possible" class="cls-1" d="M742.73,42.47v-13h1.73v1.79a3.43,3.43,0,0,1,3.19-2,3.24,3.24,0,0,1,2.71,1.26,5.41,5.41,0,0,1,1,3.44,6.1,6.1,0,0,1-1.12,3.83,3.72,3.72,0,0,1-5.77.15v4.55Zm1.73-5.75a3.92,3.92,0,0,0,2.55,1.2q2.5,0,2.5-3.81c0-2.24-.74-3.35-2.22-3.35a3.86,3.86,0,0,0-2.83,1.57Zm13.34,2.5a4.16,4.16,0,0,1-3.27-1.36,5.18,5.18,0,0,1-1.23-3.63,5.2,5.2,0,0,1,1.23-3.65,4.8,4.8,0,0,1,6.65,0,5.18,5.18,0,0,1,1.23,3.63,5.2,5.2,0,0,1-1.23,3.67A4.38,4.38,0,0,1,757.8,39.22Zm0-1.3c1.84,0,2.75-1.24,2.75-3.71s-.9-3.67-2.71-3.67-2.71,1.23-2.71,3.69S756,37.92,757.82,37.92Zm9.83,1.3a9.52,9.52,0,0,1-2.88-.55V37.08a6.84,6.84,0,0,0,3,.84,1.89,1.89,0,0,0,1.24-.41,1.23,1.23,0,0,0,.49-1c0-.59-.46-1.08-1.38-1.46l-1-.43c-1.49-.63-2.24-1.52-2.24-2.69a2.38,2.38,0,0,1,.88-2,3.73,3.73,0,0,1,2.42-.72,11.66,11.66,0,0,1,2,.22l.36.07V31a8.58,8.58,0,0,0-2.3-.44c-1.12,0-1.67.41-1.67,1.22q0,.78,1.26,1.32l.84.35a5.65,5.65,0,0,1,2,1.26,2.36,2.36,0,0,1,.59,1.66,2.55,2.55,0,0,1-1,2.06A3.89,3.89,0,0,1,767.65,39.22Zm9.17,0a9.52,9.52,0,0,1-2.88-.55V37.08a6.88,6.88,0,0,0,2.95.84,1.87,1.87,0,0,0,1.24-.41,1.24,1.24,0,0,0,.5-1c0-.59-.46-1.08-1.38-1.46l-1-.43c-1.5-.63-2.25-1.52-2.25-2.69a2.39,2.39,0,0,1,.89-2,3.71,3.71,0,0,1,2.42-.72,11.87,11.87,0,0,1,2,.22l.36.07V31a8.64,8.64,0,0,0-2.31-.44c-1.11,0-1.67.41-1.67,1.22,0,.52.43,1,1.27,1.32l.83.35a5.61,5.61,0,0,1,2,1.26,2.41,2.41,0,0,1,.59,1.66,2.53,2.53,0,0,1-1,2.06A3.87,3.87,0,0,1,776.82,39.22Zm6.65-.22V29.46h1.73V39Zm0-11.28V26h1.73v1.73Zm5.2,11.39v-14h1.73v6.13a3.43,3.43,0,0,1,3.19-2,3.27,3.27,0,0,1,2.72,1.26,5.47,5.47,0,0,1,1,3.44,6.1,6.1,0,0,1-1.12,3.83,3.72,3.72,0,0,1-5.77.15l-.21,1.19Zm1.73-2.39a3.92,3.92,0,0,0,2.55,1.2q2.5,0,2.5-3.81c0-2.24-.74-3.35-2.22-3.35a3.86,3.86,0,0,0-2.83,1.57ZM800,39V25.12h1.73V39Zm12.2-.31a10.6,10.6,0,0,1-3,.53,4.54,4.54,0,0,1-3.44-1.4,5.07,5.07,0,0,1-1.33-3.64,5.36,5.36,0,0,1,1.17-3.56,3.76,3.76,0,0,1,3-1.38,3.18,3.18,0,0,1,2.68,1.23,5.62,5.62,0,0,1,.94,3.49v.54h-6q.39,3.41,3.34,3.4a7.86,7.86,0,0,0,2.65-.58Zm-5.91-5.49h4.21c0-1.78-.66-2.66-2-2.66S806.45,31.42,806.29,33.2Z" transform="translate(-13.24 -5)"/><path id="plausible" class="cls-1" d="M742.73,98.47v-13h1.73v1.79a3.43,3.43,0,0,1,3.19-2,3.24,3.24,0,0,1,2.71,1.26,5.41,5.41,0,0,1,1,3.44,6.1,6.1,0,0,1-1.12,3.83,3.72,3.72,0,0,1-5.77.15v4.55Zm1.73-5.75a3.92,3.92,0,0,0,2.55,1.2q2.5,0,2.5-3.81c0-2.24-.74-3.35-2.22-3.35a3.86,3.86,0,0,0-2.83,1.57Zm9.6,2.28V81.12h1.73V95Zm10.13-1.21a4.58,4.58,0,0,1-3,1.43,2.77,2.77,0,0,1-2-.74,2.49,2.49,0,0,1-.78-1.88,2.69,2.69,0,0,1,1.31-2.4,7,7,0,0,1,3.77-.84h.41V88.21a1.49,1.49,0,0,0-1.7-1.67,6.43,6.43,0,0,0-3,.85V86a8.66,8.66,0,0,1,3.28-.72,3.32,3.32,0,0,1,2.36.72,3,3,0,0,1,.76,2.25v4.32c0,1,.31,1.49.92,1.49l.33,0,.12,1a2.92,2.92,0,0,1-1.3.28C764.92,95.22,764.41,94.74,764.19,93.79Zm-.26-.94V90.38l-.58,0a4.33,4.33,0,0,0-2.3.54,1.61,1.61,0,0,0-.88,1.42,1.4,1.4,0,0,0,.44,1.05,1.46,1.46,0,0,0,1.07.43A3.59,3.59,0,0,0,763.93,92.85ZM775.17,95V93.21a4,4,0,0,1-3.35,2,2.56,2.56,0,0,1-2-.79,2.93,2.93,0,0,1-.74-2.12V85.46h1.73v6.29a2.76,2.76,0,0,0,.31,1.52,1.19,1.19,0,0,0,1,.46c1.06,0,2.05-.7,3-2.09V85.46h1.73V95Zm7.74.22a9.57,9.57,0,0,1-2.89-.55V93.08a6.88,6.88,0,0,0,3,.84,1.91,1.91,0,0,0,1.24-.41,1.25,1.25,0,0,0,.49-1c0-.59-.46-1.08-1.38-1.46l-1-.43c-1.5-.63-2.24-1.52-2.24-2.69a2.38,2.38,0,0,1,.88-2,3.73,3.73,0,0,1,2.42-.72,11.87,11.87,0,0,1,2,.22l.36.07V87a8.65,8.65,0,0,0-2.3-.44c-1.12,0-1.67.41-1.67,1.22q0,.78,1.26,1.32l.84.35a5.65,5.65,0,0,1,2,1.26,2.41,2.41,0,0,1,.59,1.66,2.55,2.55,0,0,1-1,2.06A3.91,3.91,0,0,1,782.91,95.22Zm6.64-.22V85.46h1.73V95Zm0-11.28V82h1.73v1.73Zm5.2,11.39v-14h1.74v6.13a3.41,3.41,0,0,1,3.19-2,3.27,3.27,0,0,1,2.71,1.26,5.41,5.41,0,0,1,1,3.44,6.16,6.16,0,0,1-1.12,3.83,3.72,3.72,0,0,1-5.77.15l-.22,1.19Zm1.74-2.39a3.92,3.92,0,0,0,2.54,1.2q2.51,0,2.5-3.81c0-2.24-.74-3.35-2.21-3.35a3.84,3.84,0,0,0-2.83,1.57ZM806.08,95V81.12h1.73V95Zm12.2-.31a10.6,10.6,0,0,1-3,.53,4.56,4.56,0,0,1-3.44-1.4,5.07,5.07,0,0,1-1.33-3.64,5.36,5.36,0,0,1,1.17-3.56,3.79,3.79,0,0,1,3-1.38,3.17,3.17,0,0,1,2.67,1.23,5.62,5.62,0,0,1,1,3.49v.54h-6q.38,3.41,3.33,3.4a7.86,7.86,0,0,0,2.65-.58Zm-5.9-5.49h4.21c0-1.78-.67-2.66-2-2.66S812.53,87.42,812.38,89.2Z" transform="translate(-13.24 -5)"/><path id="probable" class="cls-1" d="M743.73,167.47v-13h1.73v1.79a3.43,3.43,0,0,1,3.19-2,3.24,3.24,0,0,1,2.71,1.26,5.41,5.41,0,0,1,1,3.44,6.1,6.1,0,0,1-1.12,3.83,3.72,3.72,0,0,1-5.77.15v4.55Zm1.73-5.75a3.92,3.92,0,0,0,2.55,1.2q2.5,0,2.5-3.81c0-2.24-.74-3.35-2.22-3.35a3.86,3.86,0,0,0-2.83,1.57Zm9.6,2.28v-9.54h1.73v1.79a3.24,3.24,0,0,1,3-2,3.51,3.51,0,0,1,.55,0v1.62a2.48,2.48,0,0,0-.79-.15,3.21,3.21,0,0,0-2.75,2V164Zm11.1.22a4.18,4.18,0,0,1-3.27-1.36,6,6,0,0,1,0-7.28,4.8,4.8,0,0,1,6.65,0,6,6,0,0,1,0,7.3A4.36,4.36,0,0,1,766.16,164.22Zm0-1.3q2.74,0,2.75-3.71c0-2.44-.91-3.67-2.72-3.67s-2.7,1.23-2.7,3.69S764.41,162.92,766.19,162.92Zm7.29,1.19v-14h1.73v6.13a3.43,3.43,0,0,1,3.19-2,3.27,3.27,0,0,1,2.72,1.26,5.47,5.47,0,0,1,1,3.44,6.1,6.1,0,0,1-1.12,3.83,3.72,3.72,0,0,1-5.77.15l-.21,1.19Zm1.73-2.39a3.92,3.92,0,0,0,2.55,1.2q2.5,0,2.5-3.81c0-2.24-.74-3.35-2.22-3.35a3.86,3.86,0,0,0-2.83,1.57Zm14.52,1.07a4.54,4.54,0,0,1-3,1.43,2.77,2.77,0,0,1-2-.74,2.49,2.49,0,0,1-.78-1.88,2.67,2.67,0,0,1,1.31-2.4,7,7,0,0,1,3.77-.84h.41v-1.15a1.5,1.5,0,0,0-1.71-1.67,6.42,6.42,0,0,0-3,.85V155a8.66,8.66,0,0,1,3.28-.72,3.33,3.33,0,0,1,2.36.72,3,3,0,0,1,.76,2.25v4.32c0,1,.3,1.49.91,1.49l.34,0,.12,1a3,3,0,0,1-1.3.28C790.47,164.22,790,163.74,789.73,162.79Zm-.25-.94v-2.47l-.58,0a4.33,4.33,0,0,0-2.3.54,1.61,1.61,0,0,0-.88,1.42,1.37,1.37,0,0,0,.44,1.05,1.46,1.46,0,0,0,1.07.43A3.59,3.59,0,0,0,789.48,161.85Zm5.27,2.26v-14h1.73v6.13a3.43,3.43,0,0,1,3.19-2,3.27,3.27,0,0,1,2.72,1.26,5.47,5.47,0,0,1,1,3.44,6.1,6.1,0,0,1-1.12,3.83,3.72,3.72,0,0,1-5.77.15l-.21,1.19Zm1.73-2.39a3.92,3.92,0,0,0,2.55,1.2q2.51,0,2.5-3.81c0-2.24-.74-3.35-2.22-3.35a3.86,3.86,0,0,0-2.83,1.57Zm9.6,2.28V150.12h1.73V164Zm12.2-.31a10.6,10.6,0,0,1-3,.53,4.54,4.54,0,0,1-3.44-1.4,5.07,5.07,0,0,1-1.33-3.64,5.36,5.36,0,0,1,1.17-3.56,3.76,3.76,0,0,1,3-1.38,3.18,3.18,0,0,1,2.68,1.23,5.62,5.62,0,0,1,.94,3.49v.54h-6q.39,3.41,3.34,3.4a7.86,7.86,0,0,0,2.65-.58Zm-5.91-5.49h4.21c0-1.78-.66-2.66-2-2.66S812.53,156.42,812.37,158.2Z" transform="translate(-13.24 -5)"/><path id="preferable" class="cls-1" d="M742.73,230.47v-13h1.73v1.79a3.43,3.43,0,0,1,3.19-2,3.24,3.24,0,0,1,2.71,1.26,5.41,5.41,0,0,1,1,3.44,6.1,6.1,0,0,1-1.12,3.83,3.72,3.72,0,0,1-5.77.15v4.55Zm1.73-5.75a3.92,3.92,0,0,0,2.55,1.2q2.5,0,2.5-3.81c0-2.24-.74-3.35-2.22-3.35a3.86,3.86,0,0,0-2.83,1.57Zm9.6,2.28v-9.54h1.73v1.79a3.24,3.24,0,0,1,3-2,3.51,3.51,0,0,1,.55,0v1.62a2.48,2.48,0,0,0-.79-.15,3.21,3.21,0,0,0-2.75,2V227Zm14.36-.31a10.6,10.6,0,0,1-3,.53,4.56,4.56,0,0,1-3.44-1.4,5.07,5.07,0,0,1-1.33-3.64,5.36,5.36,0,0,1,1.17-3.56,3.78,3.78,0,0,1,3-1.38,3.18,3.18,0,0,1,2.68,1.23,5.62,5.62,0,0,1,1,3.49v.54h-6q.38,3.41,3.33,3.4a7.86,7.86,0,0,0,2.65-.58Zm-5.9-5.49h4.21c0-1.78-.67-2.66-2-2.66S762.67,219.42,762.52,221.2Zm11-2.44V227h-1.74v-8.24h-1.35v-1.3h1.35v-1.15q0-3.41,3.11-3.41a8.09,8.09,0,0,1,2,.29v1.37a6.8,6.8,0,0,0-1.87-.36,1.41,1.41,0,0,0-1.17.41,2.63,2.63,0,0,0-.31,1.52v1.33h2.38v1.3Zm11.55,7.93a10.6,10.6,0,0,1-3,.53,4.54,4.54,0,0,1-3.44-1.4,5.07,5.07,0,0,1-1.33-3.64,5.36,5.36,0,0,1,1.17-3.56,3.76,3.76,0,0,1,3-1.38,3.18,3.18,0,0,1,2.68,1.23,5.62,5.62,0,0,1,.94,3.49v.54h-6c.25,2.27,1.37,3.4,3.33,3.4a7.91,7.91,0,0,0,2.66-.58Zm-5.91-5.49h4.21c0-1.78-.66-2.66-2-2.66S779.31,219.42,779.16,221.2Zm8.94,5.8v-9.54h1.73v1.79a3.24,3.24,0,0,1,3-2,3.51,3.51,0,0,1,.55,0v1.62a2.48,2.48,0,0,0-.79-.15,3.21,3.21,0,0,0-2.75,2V227Zm12.29-1.21a4.58,4.58,0,0,1-3,1.43,2.77,2.77,0,0,1-2-.74,2.49,2.49,0,0,1-.78-1.88,2.69,2.69,0,0,1,1.31-2.4,7,7,0,0,1,3.77-.84h.41v-1.15a1.49,1.49,0,0,0-1.7-1.67,6.39,6.39,0,0,0-3,.85V218a8.58,8.58,0,0,1,3.27-.72,3.32,3.32,0,0,1,2.36.72,3,3,0,0,1,.76,2.25v4.32c0,1,.31,1.49.92,1.49l.33,0,.13,1a3,3,0,0,1-1.31.28C801.13,227.22,800.61,226.74,800.39,225.79Zm-.26-.94v-2.47l-.58,0a4.35,4.35,0,0,0-2.3.54,1.61,1.61,0,0,0-.88,1.42,1.4,1.4,0,0,0,.44,1.05,1.46,1.46,0,0,0,1.07.43A3.59,3.59,0,0,0,800.13,224.85Zm5.28,2.26v-14h1.73v6.13a3.42,3.42,0,0,1,3.19-2A3.25,3.25,0,0,1,813,218.5a5.41,5.41,0,0,1,1,3.44,6.16,6.16,0,0,1-1.12,3.83,3.72,3.72,0,0,1-5.77.15l-.21,1.19Zm1.73-2.39a3.92,3.92,0,0,0,2.55,1.2q2.49,0,2.49-3.81c0-2.24-.74-3.35-2.21-3.35a3.84,3.84,0,0,0-2.83,1.57Zm9.6,2.28V213.12h1.73V227Zm12.19-.31a10.6,10.6,0,0,1-3,.53,4.57,4.57,0,0,1-3.45-1.4,5.11,5.11,0,0,1-1.33-3.64,5.31,5.31,0,0,1,1.18-3.56,3.76,3.76,0,0,1,3-1.38,3.17,3.17,0,0,1,2.67,1.23,5.62,5.62,0,0,1,1,3.49v.54h-6q.38,3.41,3.33,3.4a7.81,7.81,0,0,0,2.65-.58ZM823,221.2h4.21c0-1.78-.66-2.66-2-2.66S823.18,219.42,823,221.2Z" transform="translate(-13.24 -5)"/></g></g></svg>